name C:\Users\u0101727\Documents\MyRepositories\upper-imu-dc\OpenSim\subject0\MA\MA_Splines\angle_in_n6_dof6_3.mot
datacolumns 7
datarows 27
range 375.01000000 375.27000000
endheader 
time	clav_prot	clav_elev	scapula_abduction	scapula_elevation	scapula_upward_rot	scapula_winging	
        375.01000000	        -44.34577705	         11.96046367	         -5.58217594	          7.08700750	         70.04131325	          2.91144792	
        375.02000000	        -38.85780873	         11.96046367	         -5.58217594	          7.08700750	         70.04131325	          2.91144792	
        375.03000000	        -33.36984042	         11.96046367	         -5.58217594	          7.08700750	         70.04131325	          2.91144792	
        375.04000000	        -27.88187210	         11.96046367	         -5.58217594	          7.08700750	         70.04131325	          2.91144792	
        375.05000000	        -22.39390379	         11.96046367	         -5.58217594	          7.08700750	         70.04131325	          2.91144792	
        375.06000000	        -16.90593547	         11.96046367	         -5.58217594	          7.08700750	         70.04131325	          2.91144792	
        375.07000000	        -44.34577705	         16.86370047	         -5.58217594	          7.08700750	         70.04131325	          2.91144792	
        375.08000000	        -38.85780873	         16.86370047	         -5.58217594	          7.08700750	         70.04131325	          2.91144792	
        375.09000000	        -33.36984042	         16.86370047	         -5.58217594	          7.08700750	         70.04131325	          2.91144792	
        375.10000000	        -27.88187210	         16.86370047	         -5.58217594	          7.08700750	         70.04131325	          2.91144792	
        375.11000000	        -22.39390379	         16.86370047	         -5.58217594	          7.08700750	         70.04131325	          2.91144792	
        375.12000000	        -16.90593547	         16.86370047	         -5.58217594	          7.08700750	         70.04131325	          2.91144792	
        375.13000000	        -44.34577705	         -7.65248351	          2.85286645	          7.08700750	         70.04131325	          2.91144792	
        375.14000000	        -38.85780873	         -7.65248351	          2.85286645	          7.08700750	         70.04131325	          2.91144792	
        375.15000000	        -33.36984042	         -7.65248351	          2.85286645	          7.08700750	         70.04131325	          2.91144792	
        375.16000000	        -27.88187210	         -7.65248351	          2.85286645	          7.08700750	         70.04131325	          2.91144792	
        375.17000000	        -22.39390379	         -7.65248351	          2.85286645	          7.08700750	         70.04131325	          2.91144792	
        375.18000000	        -16.90593547	         -7.65248351	          2.85286645	          7.08700750	         70.04131325	          2.91144792	
        375.19000000	        -44.34577705	         -2.74924671	          2.85286645	          7.08700750	         70.04131325	          2.91144792	
        375.20000000	        -38.85780873	         -2.74924671	          2.85286645	          7.08700750	         70.04131325	          2.91144792	
        375.21000000	        -33.36984042	         -2.74924671	          2.85286645	          7.08700750	         70.04131325	          2.91144792	
        375.22000000	        -27.88187210	         -2.74924671	          2.85286645	          7.08700750	         70.04131325	          2.91144792	
        375.23000000	        -22.39390379	         -2.74924671	          2.85286645	          7.08700750	         70.04131325	          2.91144792	
        375.24000000	        -16.90593547	         -2.74924671	          2.85286645	          7.08700750	         70.04131325	          2.91144792	
        375.25000000	        -44.34577705	          2.15399008	          2.85286645	          7.08700750	         70.04131325	          2.91144792	
        375.26000000	        -38.85780873	          2.15399008	          2.85286645	          7.08700750	         70.04131325	          2.91144792	
        375.27000000	        -33.36984042	          2.15399008	          2.85286645	          7.08700750	         70.04131325	          2.91144792	
